{
  "accessors": [
    {
      "bufferView": 2,
      "componentType": 5126,
      "count": 582,
      "max": [
        -2.6786999702453613,
        5.158100128173828,
        3.218600034713745
      ],
      "min": [
        -5.321300029754639,
        -14.374699592590332,
        -1.42739999294281
      ],
      "type": "VEC3"
    },
    {
      "bufferView": 2,
      "byteOffset": 6984,
      "componentType": 5126,
      "count": 582,
      "max": [
        1.0,
        1.0,
        1.0
      ],
      "min": [
        -1.0,
        -1.0,
        -1.0
      ],
      "type": "VEC3"
    },
    {
      "bufferView": 3,
      "componentType": 5126,
      "count": 582,
      "max": [
        0.9992004632949829,
        1.0,
        0.9734718203544617,
        1.0
      ],
      "min": [
        -0.9999557137489319,
        -0.9999997615814209,
        -0.9944342970848083,
        1.0
      ],
      "type": "VEC4"
    },
    {
      "bufferView": 1,
      "componentType": 5126,
      "count": 582,
      "max": [
        0.9766504764556885,
        0.9631186723709106
      ],
      "min": [
        0.049147311598062515,
        0.009999999776482582
      ],
      "type": "VEC2"
    },
    {
      "bufferView": 0,
      "componentType": 5125,
      "count": 2016,
      "type": "SCALAR"
    },
    {
      "bufferView": 2,
      "byteOffset": 13968,
      "componentType": 5126,
      "count": 578,
      "max": [
        1.3213000297546387,
        5.158400058746338,
        1.42739999294281
      ],
      "min": [
        -1.3213000297546387,
        -14.37440013885498,
        -3.218600034713745
      ],
      "type": "VEC3"
    },
    {
      "bufferView": 2,
      "byteOffset": 20904,
      "componentType": 5126,
      "count": 578,
      "max": [
        1.0,
        0.999649703502655,
        1.0
      ],
      "min": [
        -1.0,
        -1.0,
        -1.0
      ],
      "type": "VEC3"
    },
    {
      "bufferView": 3,
      "byteOffset": 9312,
      "componentType": 5126,
      "count": 578,
      "max": [
        0.999133825302124,
        1.0,
        0.9727678298950195,
        1.0
      ],
      "min": [
        -0.9999164342880249,
        -1.0,
        -0.9944239258766174,
        1.0
      ],
      "type": "VEC4"
    },
    {
      "bufferView": 1,
      "byteOffset": 4656,
      "componentType": 5126,
      "count": 578,
      "max": [
        0.8661760091781616,
        0.9900000095367432
      ],
      "min": [
        0.009999999776482582,
        0.009999999776482582
      ],
      "type": "VEC2"
    },
    {
      "bufferView": 0,
      "byteOffset": 8064,
      "componentType": 5125,
      "count": 2004,
      "type": "SCALAR"
    }
  ],
  "asset": {
    "extras": {
      "author": "Sviatoslav Semenov (https://sketchfab.com/svyasem)",
      "license": "CC-BY-4.0 (http://creativecommons.org/licenses/by/4.0/)",
      "source": "https://sketchfab.com/3d-models/pliers-27090e998e4947d69bea68738864393e",
      "title": "Pliers"
    },
    "generator": "Sketchfab-12.66.0",
    "version": "2.0"
  },
  "bufferViews": [
    {
      "buffer": 0,
      "byteLength": 16080,
      "name": "floatBufferViews",
      "target": 34963
    },
    {
      "buffer": 0,
      "byteLength": 9280,
      "byteOffset": 16080,
      "byteStride": 8,
      "name": "floatBufferViews",
      "target": 34962
    },
    {
      "buffer": 0,
      "byteLength": 27840,
      "byteOffset": 25360,
      "byteStride": 12,
      "name": "floatBufferViews",
      "target": 34962
    },
    {
      "buffer": 0,
      "byteLength": 18560,
      "byteOffset": 53200,
      "byteStride": 16,
      "name": "floatBufferViews",
      "target": 34962
    }
  ],
  "buffers": [
    {
      "byteLength": 71760,
      "uri": "scene.bin"
    }
  ],
  "images": [
    {
      "uri": "textures/Scene_-_Root_baseColor.png"
    },
    {
      "uri": "textures/Scene_-_Root_metallicRoughness.png"
    },
    {
      "uri": "textures/Scene_-_Root_normal.png"
    }
  ],
  "materials": [
    {
      "doubleSided": true,
      "name": "Scene_-_Root",
      "normalTexture": {
        "index": 2
      },
      "occlusionTexture": {
        "index": 1
      },
      "pbrMetallicRoughness": {
        "baseColorTexture": {
          "index": 0
        },
        "metallicRoughnessTexture": {
          "index": 1
        }
      }
    }
  ],
  "meshes": [
    {
      "name": "Left__0",
      "primitives": [
        {
          "attributes": {
            "NORMAL": 1,
            "POSITION": 0,
            "TANGENT": 2,
            "TEXCOORD_0": 3
          },
          "indices": 4,
          "material": 0,
          "mode": 4
        }
      ]
    },
    {
      "name": "Righ__0",
      "primitives": [
        {
          "attributes": {
            "NORMAL": 6,
            "POSITION": 5,
            "TANGENT": 7,
            "TEXCOORD_0": 8
          },
          "indices": 9,
          "material": 0,
          "mode": 4
        }
      ]
    }
  ],
  "nodes": [
    {
      "children": [
        1
      ],
      "matrix": [
        -0.9999872446060181,
        3.229119829484374e-05,
        -0.005055024288594723,
        0.0,
        0.005055024288594723,
        2.220446710994803e-16,
        -0.9999872446060181,
        0.0,
        -3.2290787203237414e-05,
        -1.0,
        -1.6323281237795584e-07,
        0.0,
        -8.012266761170395e-08,
        -0.0019118412164971232,
        -2.8053162613158407e-10,
        1.0
      ],
      "name": "Sketchfab_model"
    },
    {
      "children": [
        2
      ],
      "matrix": [
        1.0,
        0.0,
        0.0,
        0.0,
        0.0,
        -1.0,
        0.0,
        0.0,
        0.0,
        0.0,
        -1.0,
        0.0,
        0.0,
        0.0,
        0.0,
        1.0
      ],
      "name": "136bca8341df48abb5642e3051f617a4.fbx"
    },
    {
      "children": [
        3
      ],
      "name": "RootNode"
    },
    {
      "children": [
        4,
        6
      ],
      "matrix": [
        0.009999999776482582,
        0.0,
        0.0,
        0.0,
        0.0,
        -4.3711387753801464e-10,
        0.009999999776482572,
        0.0,
        0.0,
        -0.009999999776482572,
        -4.3711387753801464e-10,
        0.0,
        0.0,
        0.0,
        0.0,
        1.0
      ],
      "name": "Pliers"
    },
    {
      "children": [
        5
      ],
      "matrix": [
        1.0,
        0.0,
        0.0,
        0.0,
        0.0,
        0.9961947078171794,
        -0.08715563158536799,
        0.0,
        0.0,
        0.08715563158536799,
        0.9961947078171794,
        0.0,
        4.0,
        4.608149528503418,
        5.293955920339377e-23,
        1.0
      ],
      "name": "Left"
    },
    {
      "mesh": 0,
      "name": "Left__0"
    },
    {
      "children": [
        7
      ],
      "matrix": [
        1.0,
        0.0,
        0.0,
        0.0,
        0.0,
        0.9961946866639368,
        0.08715587336801095,
        0.0,
        0.0,
        -0.08715587336801095,
        0.9961946866639368,
        0.0,
        0.0,
        4.608149528503418,
        5.293955920339377e-23,
        1.0
      ],
      "name": "Righ"
    },
    {
      "mesh": 1,
      "name": "Righ__0"
    }
  ],
  "samplers": [
    {
      "magFilter": 9729,
      "minFilter": 9987,
      "wrapS": 10497,
      "wrapT": 10497
    }
  ],
  "scene": 0,
  "scenes": [
    {
      "name": "Sketchfab_Scene",
      "nodes": [
        0
      ]
    }
  ],
  "textures": [
    {
      "sampler": 0,
      "source": 0
    },
    {
      "sampler": 0,
      "source": 1
    },
    {
      "sampler": 0,
      "source": 2
    }
  ]
}
